HIERARCHY
ROOT Hips
{
  OFFSET -35.2597 29.1586 114.425
  CHANNELS 6 Xposition Yposition Zposition Zrotation Xrotation Yrotation
  JOINT LeftUpLeg
  {
    OFFSET 8.64259 1.95398 -2.38835
    CHANNELS 3 Zrotation Xrotation Yrotation
    JOINT LeftLeg
    {
      OFFSET 43.7702 0 0
      CHANNELS 3 Zrotation Xrotation Yrotation
      JOINT LeftFoot
      {
        OFFSET 40.6238 0 0
        CHANNELS 3 Zrotation Xrotation Yrotation
        JOINT LeftToeBase
        {
          OFFSET 12.7242 0 0
          CHANNELS 3 Zrotation Xrotation Yrotation
          End Site
          {
            OFFSET 0 0 0
          }
        }
      }
    }
  }
  JOINT RightUpLeg
  {
    OFFSET -8.2249 1.95398 -2.59336
    CHANNELS 3 Zrotation Xrotation Yrotation
    JOINT RightLeg
    {
      OFFSET 43.5653 0 0
      CHANNELS 3 Zrotation Xrotation Yrotation
      JOINT RightFoot
      {
        OFFSET 40.6238 0 0
        CHANNELS 3 Zrotation Xrotation Yrotation
        JOINT RightToeBase
        {
          OFFSET 12.7242 0 0
          CHANNELS 3 Zrotation Xrotation Yrotation
          End Site
          {
            OFFSET 0 0 0
          }
        }
      }
    }
  }
  JOINT Spine
  {
    OFFSET 0.165834 0.87714 6.61349
    CHANNELS 3 Zrotation Xrotation Yrotation
    JOINT Spine1
    {
      OFFSET 7.38963 1.71661e-005 0
      CHANNELS 3 Zrotation Xrotation Yrotation
      JOINT Spine2
      {
        OFFSET 11.9445 1.14441e-005 0
        CHANNELS 3 Zrotation Xrotation Yrotation
        JOINT Spine3
        {
          OFFSET 14.7254 4.19617e-005 0
          CHANNELS 3 Zrotation Xrotation Yrotation
          JOINT Spine4
          {
            OFFSET 10.9679 0 0
            CHANNELS 3 Zrotation Xrotation Yrotation
            JOINT RightShoulder
            {
              OFFSET 2.46616 -1.6653 3.69651
              CHANNELS 3 Zrotation Xrotation Yrotation
              JOINT RightArm
              {
                OFFSET 13.0012 0 0
                CHANNELS 3 Zrotation Xrotation Yrotation
                JOINT RightForeArm
                {
                  OFFSET 28.7848 1.62311e-005 0
                  CHANNELS 3 Zrotation Xrotation Yrotation
                  JOINT RightHand
                  {
                    OFFSET 26.5688 1.62095e-005 0
                    CHANNELS 3 Zrotation Xrotation Yrotation
                    End Site
                    {
                      OFFSET 0 0 0
                    }
                  }
                }
              }
            }
            JOINT LeftShoulder
            {
              OFFSET 2.38034 -1.29275 -3.7523
              CHANNELS 3 Zrotation Xrotation Yrotation
              JOINT LeftArm
              {
                OFFSET 16.3182 6.07031e-005 0
                CHANNELS 3 Zrotation Xrotation Yrotation
                JOINT LeftForeArm
                {
                  OFFSET 27.0901 0 0
                  CHANNELS 3 Zrotation Xrotation Yrotation
                  JOINT LeftHand
                  {
                    OFFSET 24.5451 1.51738e-005 0
                    CHANNELS 3 Zrotation Xrotation Yrotation
                    End Site
                    {
                      OFFSET 0 0 0
                    }
                  }
                }
              }
            }
            JOINT Neck
            {
              OFFSET 5.0226 -0.0266342 0
              CHANNELS 3 Zrotation Xrotation Yrotation
              JOINT Head
              {
                OFFSET 6.69364 2.86102e-005 0
                CHANNELS 3 Zrotation Xrotation Yrotation
                End Site
                {
                  OFFSET 0 0 0
                }
              }
            }
          }
        }
      }
    }
  }
}
MOTION
Frames:	6
Frame Time:	0.0416667
35.0479 29.9774 36.7478 -3.04264 -15.2831 -1.06997 -175.966 -0.319604 89.8804 -17.6237 27.7404 1.97224 85.172 20.4992 5.00764 38.7713 4.26696 1.49607 175.617 -4.74996 92.125 -8.50039 -16.8022 -0.741596 87.2472 -20.9714 -1.82513 50.3258 -8.60489 -2.19098 0.827363 7.58298 -90.18 11.7127 1.56113 -0.523731 0.0425933 1.53656 -0.591956 -22.5001 1.64633 -0.0302041 -2.48742 1.64634 -0.030219 96.7612 -14.5796 -96.7888 29.4949 7.74821 6.20744 -51.078 -14.2669 -80.0201 -73.6022 5.15974 -12.1847 -83.1561 -34.1872 87.162 -21.3687 -13.1152 -53.1592 178.611 39.7799 -179.756 -8.30794 7.73783 -109.996 18.4272 -0.57687 -1.31673 7.26672 -0.0322426 1.75048 
35.0997 25.8841 37.2853 -1.87211 -14.9762 -1.11079 -175.975 -2.91408 90.1715 -17.6389 31.8517 2.52583 86.8167 22.3398 5.58474 37.8847 0.620548 9.60534 176.83 -7.20282 92.5793 -8.92482 -15.1329 -2.51232 89.1978 -23.6414 -4.00267 49.5894 -8.62236 2.08061 0.757236 7.37331 -90.1585 12.131 1.43034 -0.474321 0.460731 1.40809 -0.53684 -22.0807 1.50675 -0.0224164 -2.06806 1.50676 -0.0224171 97.353 -15.2149 -95.0262 30.9459 4.56832 6.99703 -41.3323 -11.6818 -78.268 -88.6492 9.97218 -15.437 -82.8542 -34.3818 87.7449 -21.7527 -12.8627 -50.8741 178.853 34.7921 -179.998 -6.01553 4.69856 -109.857 23.5927 -1.13814 -2.14092 7.18081 -0.14026 2.89695 
35.1405 22.6614 38.2262 -3.65087 -15.2255 -1.16656 -174.666 -4.4064 91.0305 -19.6083 33.935 1.66622 86.4253 22.9421 7.8154 30.1355 1.19554 -1.57445 176.954 -9.54614 92.4859 -9.06236 -15.4638 -2.80696 89.4238 -23.2695 -2.23348 51.0116 -9.13185 1.77812 0.862807 7.20521 -90.2644 12.4692 1.58853 -0.711008 0.798966 1.5557 -0.780246 -21.7437 1.72875 -0.200576 -1.73109 1.72876 -0.200587 97.2616 -15.1205 -95.2947 30.7789 4.24506 19.4925 -43.5005 -6.36999 -87.4522 -86.1594 11.0709 -17.0481 -82.9373 -36.4629 87.8683 -21.3718 -13.3796 -47.3576 179.136 23.1982 179.977 -1.21358 -1.62243 -110.96 27.4921 -0.630119 -1.83394 5.94974 0.23523 2.33082 
35.2103 20.0091 39.1758 -3.49142 -15.4866 -1.20687 -174.609 -6.66003 90.7607 -19.4028 34.6962 1.86309 85.9355 23.3387 9.26128 2.37534 -2.65193 -13.2661 176.93 -10.9992 92.0524 -10.7096 -16.7435 -3.39986 89.886 -23.4339 -2.31625 49.1285 -8.26696 -0.113224 0.78286 7.13691 -90.2524 12.605 1.4348 -0.67189 0.934612 1.40383 -0.734405 -21.6067 1.57037 -0.209523 -1.59405 1.57037 -0.209524 97.7173 -14.4101 -94.2696 29.4692 7.32533 36.9102 -57.5552 5.20853 -90.5245 -72.4768 11.4804 -21.2396 -82.8742 -36.2329 87.9528 -20.7006 -14.1044 -43.9186 179.038 28.1371 179.937 -2.38382 -0.0819813 -107.147 31.5022 -0.763758 -1.66336 4.89873 -0.00016768 0.743327 
35.2096 18.0969 40.0938 -3.02672 -14.6983 -0.495938 -174.406 -7.20023 91.4671 -19.1932 32.7845 2.0934 87.1951 22.8272 5.90414 16.0988 -1.89633 -5.83156 176.72 -11.0167 92.2114 -11.8604 -18.0286 -3.0514 88.9043 -22.4859 -2.5439 47.408 -7.85404 2.40078 0.768676 6.97429 -90.2789 12.9304 1.39246 -0.726156 1.25994 1.35914 -0.786746 -21.2809 1.54631 -0.274027 -1.26822 1.54631 -0.274022 97.1694 -15.1993 -95.5074 31.5424 3.65125 33.0155 -44.58 1.04342 -90.0181 -90.3828 15.5867 -20.8438 -82.6978 -36.3716 88.2843 -21.1756 -13.7664 -42.2802 179.096 24.5416 179.992 -1.00153 -1.76498 -106.23 34.3077 -1.32289 -2.84455 4.50709 0.0661806 1.65263 
35.0979 16.7614 40.916 -2.78556 -14.1727 -0.50991 -174.615 -7.34678 91.3659 -19.6267 33.5496 2.4045 86.1024 22.1298 6.36716 23.6276 -1.32251 -2.343 176.428 -10.8031 91.7118 -13.0927 -19.7487 -3.15098 89.5488 -22.7724 -2.61986 44.9873 -6.85979 1.74888 0.745812 6.84859 -90.243 13.1814 1.36313 -0.65598 1.51095 1.33295 -0.715333 -21.0297 1.49725 -0.215876 -1.01708 1.49726 -0.215891 96.8107 -16.2226 -96.1639 31.7605 2.97239 38.5036 -43.3968 0.674513 -93.7126 -93.9031 16.1573 -20.3826 -83.1127 -37.5305 87.6939 -20.1137 -14.6724 -40.2569 179.104 23.9478 -179.999 -0.617398 -2.19051 -104.824 34.9156 -1.46844 -2.25061 4.23531 -0.351366 0.964067 
